<svg xmlns="http://www.w3.org/2000/svg" width="310pt" height="83pt"
     viewBox="0.00 0.00 309.91 83.20">
    <g id="graph0" class="graph" transform="scale(1 1) rotate(0) translate(4 79.2)">
        <title>RNXCLI_JobletDaemon</title>
        <polygon fill="white" stroke="none" points="-4,4 -4,-79.2 305.91,-79.2 305.91,4 -4,4"/>
        <!-- RNXCLI -->
        <g id="node1" class="node">
            <title>RNXCLI</title>
            <polygon fill="none" stroke="black" points="108.54,-75.2 0,-75.2 0,0 108.54,0 108.54,-75.2"/>
            <text text-anchor="middle" x="54.27" y="-58.6" font-family="Times,serif" font-size="14.00">RNX CLI</text>
            <text text-anchor="middle" x="54.27" y="-41.8" font-family="Times,serif" font-size="14.00">• Linux/macOS
            </text>
            <text text-anchor="middle" x="54.27" y="-25" font-family="Times,serif" font-size="14.00">• Windows</text>
            <text text-anchor="middle" x="54.27" y="-8.2" font-family="Times,serif" font-size="14.00">• Remote client
            </text>
        </g>
        <!-- JobletDaemon -->
        <g id="node2" class="node">
            <title>JobletDaemon</title>
            <polygon fill="none" stroke="black" points="301.91,-75.2 180.54,-75.2 180.54,0 301.91,0 301.91,-75.2"/>
            <text text-anchor="middle" x="241.23" y="-58.6" font-family="Times,serif" font-size="14.00">Joblet Daemon
            </text>
            <text text-anchor="middle" x="241.23" y="-41.8" font-family="Times,serif" font-size="14.00">• Linux only
            </text>
            <text text-anchor="middle" x="241.23" y="-25" font-family="Times,serif" font-size="14.00">• Systemd
                service
            </text>
            <text text-anchor="middle" x="241.23" y="-8.2" font-family="Times,serif" font-size="14.00">• Job isolation
            </text>
        </g>
        <!-- RNXCLI&#45;&gt;JobletDaemon -->
        <g id="edge1" class="edge">
            <title>RNXCLI-&gt;JobletDaemon</title>
            <path fill="none" stroke="black" d="M108.85,-37.6C127.68,-37.6 149.07,-37.6 169.08,-37.6"/>
            <polygon fill="black" stroke="black" points="168.84,-41.1 178.84,-37.6 168.84,-34.1 168.84,-41.1"/>
            <text text-anchor="middle" x="152.02" y="-28.6" font-family="Times,serif" font-size="10.00">gRPC/mTLS</text>
        </g>
    </g>
</svg>